# xmcd
#
# Track frame offsets: 
#        150
#        9757
#        20690
#        34982
#        52258
#        69917
#        91043
#        117360
#        135572
#        152100
#
# Disc length: 2256 seconds
#
# Revision: 0
# Processed by: cddbd v1.5.2PL0 Copyright (c) Steve Scherf et al.
# Submitted via: ExactAudioCopy v1.0b1
#
DISCID=7a08ce0a
DTITLE=Wisdom's Cry - Wisdom's Cry
DYEAR=2000
DGENRE=Religious
TTITLE0=Children Go
TTITLE1=Water Melody
TTITLE2=Everybody Needs To Know
TTITLE3=Forgiven
TTITLE4=He Would Have Done It All For Me
TTITLE5=It Is Well With My Soul
TTITLE6=If I Didn't Have You
TTITLE7=He Is Wonderful
TTITLE8=You Are
TTITLE9=Doxology
EXTD=
EXTT0=
EXTT1=
EXTT2=
EXTT3=
EXTT4=
EXTT5=
EXTT6=
EXTT7=
EXTT8=
EXTT9=
PLAYORDER=
